<svg
  width="64"
  height="64"
  viewBox="0 0 64 64"
  xmlns="http://www.w3.org/2000/svg"
  fill="none"
  stroke="black"
  class="logo-svg"
  stroke-width="2"
  stroke-linecap="round"
  stroke-linejoin="round"
>
  <!-- trunk -->
  <line x1="32" y1="50" x2="32" y2="32" />

  <!-- central hub -->
  <circle cx="32" cy="28" r="3" />

  <!-- outer branches in a circle -->
  <line x1="32" y1="28" x2="32" y2="14" />   <!-- top -->
  <line x1="32" y1="28" x2="44" y2="18" />   <!-- top-right -->
  <line x1="32" y1="28" x2="48" y2="32" />   <!-- right -->
  <line x1="32" y1="28" x2="44" y2="46" />   <!-- bottom-right -->
  <line x1="32" y1="28" x2="32" y2="50" />   <!-- bottom (connects to trunk) -->
  <line x1="32" y1="28" x2="20" y2="46" />   <!-- bottom-left -->
  <line x1="32" y1="28" x2="16" y2="32" />   <!-- left -->
  <line x1="32" y1="28" x2="20" y2="18" />   <!-- top-left -->

  <!-- leaf nodes -->
  <circle cx="32" cy="14" r="2" />
  <circle cx="44" cy="18" r="2" />
  <circle cx="48" cy="32" r="2" />
  <circle cx="44" cy="46" r="2" />
  <circle cx="32" cy="50" r="2" />
  <circle cx="20" cy="46" r="2" />
  <circle cx="16" cy="32" r="2" />
  <circle cx="20" cy="18" r="2" />

</svg>